# xmcd
#
# Track frame offsets:
#	150
#	13635
#	32605
#	53350
#	59440
#	73260
#	87678
#	99445
#	124530
#	141713
#	155376
#	173566
#	194371
#	209664
#	220569
#
# Disc length: 3158 seconds
#
# Revision: 0
# Processed by: cddbd v1.5.2PL0 Copyright (c) Steve Scherf et al.
# Submitted via: EZCDAudioConverter 2.1.7.1
#
DISCID=d60c540f
DTITLE=Bermuda Triangle - Bermuda Triangle (1969)
DYEAR=1900
DGENRE=
TTITLE0=Nights In White Satin
TTITLE1=Right Track
TTITLE2=Dream On
TTITLE3=Lark In The Morning/Swallowtail
TTITLE4=Free Ride
TTITLE5=Standing Together
TTITLE6=Louisiana
TTITLE7=Night Train
TTITLE8=Wind
TTITLE9=Tucson
TTITLE10=Bright Light Princess
TTITLE11=My Brother
TTITLE12=Jambalaya
TTITLE13=Always Love You
TTITLE14=You Must Forget
EXTD=
EXTT0=
EXTT1=
EXTT2=
EXTT3=
EXTT4=
EXTT5=
EXTT6=
EXTT7=
EXTT8=
EXTT9=
EXTT10=
EXTT11=
EXTT12=
EXTT13=
EXTT14=
PLAYORDER=
